<?xml version="1.0" encoding="utf-8"?>
<!-- Generator: Adobe Illustrator 22.1.0, SVG Export Plug-In . SVG Version: 6.00 Build 0)  -->
<svg version="1.1" id="Calque_1" xmlns="http://www.w3.org/2000/svg" xmlns:xlink="http://www.w3.org/1999/xlink" x="0px" y="0px"
	 viewBox="0 0 70.5 64.4" style="enable-background:new 0 0 70.5 64.4;" xml:space="preserve">
<g>
	<circle cx="64.3" cy="32.6" r="6.2"/>
	<path d="M20.3,33.2c0,11,11.5,9.1,11.5,9.1s3.4-0.3,5.8-2.7l-7.2-7V22C30.4,22,20.3,22.2,20.3,33.2z"/>
	<path d="M32.3,20.1V31h10.3C42.6,31,42.2,20.1,32.3,20.1z"/>
	<path d="M43.3,32.6h-10l7,6.9C43.5,37,43.3,32.6,43.3,32.6z"/>
	<path d="M32.4,63c-17.1,0-31-13.9-31-31s13.9-31,31-31c14.3,0,26.3,9.7,29.9,22.9l1-0.3C59.6,9.9,47.2-0.1,32.4-0.1
		C14.7-0.1,0.3,14.3,0.3,32S14.7,64,32.4,64c14.5,0,26.7-9.6,30.7-22.8l-1-0.3C58.2,53.6,46.4,63,32.4,63z"/>
</g>
</svg>
