<?xml version="1.0" encoding="utf-8"?>
<!-- Generator: Adobe Illustrator 22.1.0, SVG Export Plug-In . SVG Version: 6.00 Build 0)  -->
<svg version="1.1" id="Calque_1" xmlns="http://www.w3.org/2000/svg" xmlns:xlink="http://www.w3.org/1999/xlink" x="0px" y="0px"
	 viewBox="0 0 70.5 64.4" style="enable-background:new 0 0 70.5 64.4;" xml:space="preserve">
<g>
	<circle cx="64.4" cy="32.6" r="6.2"/>
	<path d="M39.3,23.6l-7.4-3.8L23.5,24v6.7l-8.3,4.2v6.8l7.5,4.7l8.2-4.2l7.5,4.7l8.3-4.2V35l-7.4-3.8l0,0V23.6z M29.2,40.6L24,43.2
		v-4.1l5.3-2.3V40.6z M22.7,38.2l-5.1-2.9l6-2.9l5.7,2.8L22.7,38.2z M25.9,24.3l6-2.9l5.7,2.8L31,27.3L25.9,24.3z M32.3,28.1
		l5.3-2.3v3.8l-5.3,2.6V28.1z M45,41l-5.3,2.6v-4.1l5.3-2.3V41z M45,35.5l-6.6,3.1l-5.1-2.9l6-2.9L45,35.5z"/>
	<path d="M32.9,63c-17.1,0-31-13.9-31-31s13.9-31,31-31c14.3,0,26.3,9.7,29.9,22.9l1-0.3C60.1,9.9,47.7-0.1,32.9-0.1
		C15.2-0.1,0.8,14.3,0.8,32S15.2,64,32.9,64c14.5,0,26.7-9.6,30.7-22.8l-1-0.3C58.8,53.6,46.9,63,32.9,63z"/>
</g>
</svg>
