<?xml version="1.0" encoding="utf-8"?>
<!-- Generator: Adobe Illustrator 19.2.0, SVG Export Plug-In . SVG Version: 6.00 Build 0)  -->
<svg version="1.1" id="Calque_1" xmlns="http://www.w3.org/2000/svg" xmlns:xlink="http://www.w3.org/1999/xlink" x="0px" y="0px"
	 viewBox="0 0 63.4 42.8" style="enable-background:new 0 0 63.4 42.8;" xml:space="preserve">
<g>
	<path d="M30.1,2.1C12.3,2.7,0.7,19.8,0.7,19.8s12.4,22.8,31.1,21c0,0,17.8-0.9,30.5-21C51.5,6.1,39.5,1.9,30.1,2.1z M33.4,6.9v3.8
		c-12.7-2.4-11.5,7.7-11.5,7.7h-3C16.3,5.1,33.4,6.6,33.4,6.9z M31.6,38.2C15.5,39.8,4.7,20,4.7,20s7-10.3,18.3-14
		c-4.3,2.7-7.2,7.5-7.2,13c0,8.5,6.9,15.5,15.5,15.5s15.5-6.9,15.5-15.5c0-5.3-2.6-9.9-6.6-12.7C46,8.5,52.2,12.7,58,20
		C47,37.5,31.6,38.2,31.6,38.2z"/>
</g>
</svg>
